<?xml version="1.0" encoding="utf-8"?>
<!-- Generator: Adobe Illustrator 16.0.0, SVG Export Plug-In . SVG Version: 6.00 Build 0)  -->
<!DOCTYPE svg PUBLIC "-//W3C//DTD SVG 1.1//EN" "http://www.w3.org/Graphics/SVG/1.1/DTD/svg11.dtd">
<svg version="1.1" id="Capa_1" xmlns="http://www.w3.org/2000/svg" xmlns:xlink="http://www.w3.org/1999/xlink" x="0px" y="0px"
	 width="512px" height="512px" viewBox="0 0 512 512" enable-background="new 0 0 512 512" xml:space="preserve">
<g>
	<path fill="#FFFFFF" d="M312.136,23.219c-30.952-30.959-81.318-30.959-112.271,0c-30.954,30.96-30.954,81.336,0,112.296
		c30.951,30.959,81.318,30.961,112.271,0C343.089,104.556,343.089,54.18,312.136,23.219z M290.924,114.3
		c-19.258,19.262-50.59,19.262-69.848,0c-19.257-19.262-19.257-50.603,0-69.864c19.256-19.259,50.59-19.263,69.848,0
		C310.182,63.697,310.182,95.038,290.924,114.3z"/>
	<path fill="#FFFFFF" d="M23.271,312.148c30.953,30.96,81.318,30.961,112.272,0c31.025-31.03,31.03-81.261,0-112.296
		c-30.952-30.961-81.318-30.962-112.272,0C-7.754,230.882-7.759,281.113,23.271,312.148z M44.482,221.068
		c19.258-19.261,50.591-19.262,69.849,0c19.302,19.305,19.304,50.556,0,69.864c-19.258,19.263-50.591,19.262-69.849,0
		C25.18,271.626,25.178,240.376,44.482,221.068L44.482,221.068z"/>
	<path fill="#FFFFFF" d="M488.729,199.852c-30.952-30.961-81.318-30.962-112.271,0c-31.025,31.03-31.03,81.261,0,112.296
		c30.953,30.96,81.318,30.961,112.271,0C519.754,281.118,519.759,230.887,488.729,199.852L488.729,199.852z M467.518,290.932
		L467.518,290.932c-19.259,19.264-50.592,19.262-69.849,0c-19.302-19.306-19.304-50.556,0-69.864
		c19.258-19.261,50.591-19.262,69.849,0C486.82,240.374,486.822,271.624,467.518,290.932z"/>
	<path fill="#FFFFFF" d="M199.864,376.484c-30.954,30.96-30.954,81.336,0,112.297c30.953,30.958,81.318,30.96,112.271,0
		c30.954-30.96,30.954-81.336,0-112.296C281.184,345.523,230.817,345.523,199.864,376.484L199.864,376.484z M290.924,467.564
		c-19.258,19.262-50.592,19.261-69.848,0c-19.257-19.263-19.257-50.604,0-69.864c19.257-19.26,50.59-19.262,69.848,0
		S310.182,448.303,290.924,467.564z"/>
	<path fill="#FFFFFF" d="M161.484,94.472c-4.753-6.787-14.106-8.435-20.89-3.683c-19.42,13.603-36.165,30.351-49.769,49.779
		c-4.753,6.787-3.104,16.141,3.68,20.894c6.786,4.754,16.138,3.105,20.89-3.682c11.592-16.554,25.859-30.824,42.406-42.414
		C164.588,110.613,166.236,101.259,161.484,94.472L161.484,94.472z"/>
	<path fill="#FFFFFF" d="M350.516,417.528c4.758,6.792,14.111,8.432,20.891,3.683c19.42-13.603,36.165-30.351,49.769-49.779
		c4.753-6.786,3.104-16.141-3.68-20.894c-6.785-4.754-16.138-3.106-20.89,3.682c-11.592,16.555-25.859,30.824-42.406,42.414
		C347.412,401.387,345.764,410.741,350.516,417.528L350.516,417.528z"/>
	<path fill="#FFFFFF" d="M157.802,396.634c-16.547-11.59-30.814-25.86-42.406-42.414c-4.752-6.787-14.103-8.433-20.89-3.682
		c-6.785,4.753-8.433,14.108-3.68,20.894c13.604,19.429,30.348,36.177,49.769,49.779c6.79,4.755,16.141,3.102,20.89-3.683
		C166.236,410.741,164.588,401.387,157.802,396.634L157.802,396.634z"/>
	<path fill="#FFFFFF" d="M396.604,157.78c4.75,6.785,14.102,8.436,20.891,3.682c6.785-4.753,8.433-14.108,3.68-20.894
		c-13.604-19.428-30.348-36.176-49.77-49.779c-6.784-4.753-16.137-3.105-20.889,3.683c-4.752,6.787-3.104,16.142,3.682,20.894
		C370.745,126.956,385.012,141.227,396.604,157.78L396.604,157.78z"/>
</g>
</svg>
